<svg width="4816" height="2208" viewBox="0 0 4816 2208" fill="none" xmlns="http://www.w3.org/2000/svg">
<path d="M440.902 841.819L345.322 1000.76L659.811 831.517L989.716 1012.54V900.687L649.019 721.139L440.902 841.819Z" fill="#50349A" stroke="black" stroke-width="2.99808"/>
<path d="M440.902 841.819L345.322 1000.76L659.811 831.517L989.716 1012.54V900.687L649.019 721.139L440.902 841.819Z" fill="#50349A" stroke="black" stroke-width="2.99808"/>
<path d="M440.902 841.819L345.322 1000.76L659.811 831.517L989.716 1012.54V900.687L649.019 721.139L440.902 841.819Z" fill="#50349A" stroke="black" stroke-width="2.99808"/>
<path d="M887.096 713.647L695.123 715.094L1006.89 888.862L1009.7 1252.11L1110.85 1195.66L1101.26 824.261L887.096 713.647Z" fill="#50349A" stroke="black" stroke-width="2.99808"/>
<path d="M317.8 1277.6L412.362 1437.1L420.053 1092.53L751.306 913.764L650.492 856.774L315.068 1045.15L317.8 1277.6Z" fill="#50349A" stroke="black" stroke-width="2.99808"/>
<path d="M1229.31 1035.72L1124.35 882.262L1139.54 1226.6L820.813 1425.04L925.206 1475.82L1247.46 1267.54L1229.31 1035.72Z" fill="#50349A" stroke="black" stroke-width="2.99808"/>
<path d="M1122.87 1489.76L1219.48 1331.38L903.898 1498.76L575.176 1315.79L574.449 1427.64L913.972 1609.2L1122.87 1489.76Z" fill="#50349A" stroke="black" stroke-width="2.99808"/>
<path d="M657.872 1604.85L849.84 1606.81L541.5 1427.55L545.756 1064.31L443.53 1118.96L445.892 1490.46L657.872 1604.85Z" fill="#50349A" stroke="black" stroke-width="2.99808"/>
<path d="M1239.66 1633.19C1242.16 1633.19 1245.6 1634.75 1249.97 1637.87L1269.64 1658.48C1242.16 1685.97 1212.49 1711.26 1180.64 1734.37C1148.78 1756.86 1113.81 1776.22 1075.71 1792.46C1037.61 1808.7 995.758 1821.19 950.162 1829.94C905.191 1839.31 855.535 1843.99 801.195 1843.99C711.877 1843.99 629.43 1828.38 553.853 1797.15C478.901 1765.29 414.255 1720.32 359.915 1662.23C305.575 1603.52 263.102 1532.63 232.497 1449.56C201.891 1366.48 186.589 1273.42 186.589 1170.36C186.589 1069.8 201.891 978.295 232.497 895.848C263.102 812.776 306.2 741.884 361.789 683.172C418.003 623.835 484.835 577.926 562.286 545.447C640.361 512.968 726.243 496.728 819.933 496.728C908.002 496.728 986.077 510.157 1054.16 537.015C1122.24 563.873 1185.64 602.598 1244.35 653.191L1230.3 673.803C1227.8 678.175 1222.8 680.361 1215.3 680.361C1211.56 680.361 1205 676.925 1195.63 670.055C1186.89 663.184 1175.02 654.752 1160.03 644.759C1145.66 634.14 1127.86 622.898 1106.62 611.03C1086.01 598.538 1061.65 587.295 1033.55 577.302C1005.44 566.684 973.585 557.939 937.982 551.069C902.38 544.198 863.03 540.763 819.933 540.763C734.987 540.763 656.912 555.441 585.708 584.797C514.504 614.153 453.293 656.001 402.076 710.342C350.858 764.682 310.884 830.889 282.152 908.964C254.045 986.415 239.992 1073.55 239.992 1170.36C239.992 1269.05 254.045 1357.43 282.152 1435.5C310.884 1512.95 350.546 1578.85 401.139 1633.19C451.731 1686.9 511.381 1728.13 580.087 1756.86C648.793 1785.59 723.432 1799.96 804.006 1799.96C854.598 1799.96 899.882 1796.52 939.856 1789.65C979.831 1782.78 1016.37 1772.47 1049.47 1758.73C1083.2 1744.99 1114.12 1728.13 1142.23 1708.14C1170.96 1688.15 1199.38 1665.35 1227.48 1639.75C1231.86 1635.37 1235.92 1633.19 1239.66 1633.19ZM2538.56 511.719V1829H2486.09V1181.6H1600.72V1829H1549.19V511.719H1600.72V1140.38H2486.09V511.719H2538.56ZM3007.9 1829H2956.37V511.719H3007.9V1829ZM3741.45 1235.94C3803.29 1235.94 3858.87 1227.2 3908.22 1209.71C3958.19 1192.22 4000.35 1168.17 4034.7 1137.57C4069.68 1106.96 4096.54 1070.74 4115.27 1028.89C4134.01 987.039 4143.38 942.068 4143.38 893.974C4143.38 782.795 4109.96 698.162 4043.13 640.074C3976.3 581.986 3875.74 552.942 3741.45 552.942H3478.18V1235.94H3741.45ZM3741.45 511.719C3890.1 511.719 4002.85 543.573 4079.67 607.283C4157.12 670.992 4195.85 766.556 4195.85 893.974C4195.85 949.563 4184.92 1001.09 4163.06 1048.56C4141.82 1095.41 4111.21 1136.01 4071.24 1170.36C4031.26 1204.09 3983.17 1230.63 3926.96 1250C3871.37 1268.73 3809.53 1278.1 3741.45 1278.1H3478.18V1829H3426.65V511.719H3741.45ZM4539.51 1829H4487.98V511.719H4539.51V1829Z" fill="#50349A"/>
</svg>
